<?xml version="1.0" encoding="UTF-8"?>
<svg xmlns="http://www.w3.org/2000/svg" viewBox="0 0 100 100" width="100" height="100">
  <path d="M 50 0 L 91.38047 41.38047 L 49.6728 21.93187 L 48.61427 21.47087 L 47.53353 21.06465 L 46.43342 20.71426 L 45.31682 20.42063 L 44.18665 20.18452 L 43.04589 20.00656 L 41.89751 19.88721 L 40.74453 19.82678 L 39.58997 19.82543 L 38.43685 19.88316 L 37.2882 19.99983 L 36.14703 20.17513 L 35.01631 20.40859 L 33.89903 20.69961 L 32.79811 21.04743 L 31.71642 21.45112 L 30.65681 21.90964 L 29.62205 22.42179 L 28.61486 22.98621 L 27.63787 23.60144 L 26.69364 24.26586 L 25.78466 24.97772 L 24.91329 25.73517 L 24.08182 26.53622 L 23.29244 27.37877 L 22.5472 28.26061 L 21.84807 29.17943 L 21.60049 29.54232 L 21.37221 29.91765 L 21.16386 30.3044 L 20.97599 30.70151 L 20.80914 31.1079 L 20.66375 31.52244 L 20.54022 31.94402 L 20.43888 32.37147 L 20.36003 32.80364 L 20.30386 33.23934 L 20.27053 33.67738 L 20.26014 34.11656 L 20.27271 34.55568 L 20.30821 34.99354 L 20.36654 35.42896 L 20.44754 35.86073 L 20.551 36.28768 L 20.67662 36.70863 L 20.82407 37.12245 L 20.99294 37.528 L 21.18277 37.92417 L 21.39304 38.30989 L 21.62318 38.68408 L 21.87255 39.04574 L 22.14049 39.39388 L 22.42625 39.72754 L 22.72905 40.04581 L 23.04808 40.34782 L 23.38244 40.63275 L 23.73124 40.89982 L 24.09352 41.1483 L 24.46829 41.37751 L 24.85452 41.58682 L 25.25116 41.77567 L 25.65713 41.94353 L 26.07131 42.08995 L 26.49258 42.21453 L 26.91978 42.31692 L 27.35175 42.39686 L 27.78731 42.45411 L 28.22526 42.48852 L 28.66441 42.5 L 31.18429 42.5 L 31.31074 42.49674 L 31.43687 42.48698 L 31.56232 42.47074 L 31.68677 42.44806 L 31.80989 42.419 L 31.93134 42.38365 L 32.05082 42.34209 L 32.168 42.29443 L 32.28257 42.24081 L 32.39423 42.18136 L 32.50268 42.11623 L 32.60763 42.04562 L 32.70881 41.96969 L 32.80595 41.88866 L 32.89879 41.80273 L 32.98708 41.71213 L 33.07059 41.61712 L 33.14909 41.51793 L 33.22239 41.41483 L 33.29028 41.30809 L 33.35259 41.198 L 33.40914 41.08485 L 33.4598 40.96893 L 33.50442 40.85056 L 33.5429 40.73006 L 33.57511 40.60773 L 33.60099 40.4839 L 33.62045 40.35891 L 33.63346 40.23308 L 33.63997 40.10675 L 33.63997 39.98025 L 33.63346 39.85392 L 33.62045 39.72809 L 33.60099 39.6031 L 33.57511 39.47927 L 33.5429 39.35694 L 33.50442 39.23644 L 33.4598 39.11807 L 33.40914 39.00215 L 33.35259 38.889 L 33.29028 38.77891 L 33.22239 38.67217 L 33.14909 38.56907 L 33.07059 38.46988 L 32.98708 38.37486 L 32.89879 38.28427 L 32.80595 38.19834 L 32.70881 38.11731 L 32.60763 38.04138 L 32.50268 37.97076 L 32.39423 37.90564 L 32.28257 37.84619 L 32.168 37.79257 L 32.05082 37.74491 L 31.93134 37.70335 L 31.80989 37.668 L 31.68677 37.63894 L 31.56232 37.61626 L 31.43687 37.60002 L 31.31074 37.59026 L 31.18429 37.587 L 31.19344 37.23638 L 31.22088 36.88672 L 31.26653 36.53897 L 31.33027 36.19407 L 31.41192 35.85297 L 31.51127 35.51659 L 31.62803 35.18586 L 31.76189 34.86167 L 31.91249 34.54491 L 32.07941 34.23645 L 32.2622 33.93711 L 32.46037 33.64772 L 32.67337 33.36907 L 32.90063 33.10191 L 33.14151 32.84698 L 33.39537 32.60496 L 33.66152 32.37653 L 33.93922 32.16229 L 34.22773 31.96284 L 34.52625 31.77872 L 34.83398 31.61043 L 35.15007 31.45843 L 35.47366 31.32313 L 35.80387 31.2049 L 36.1398 31.10407 L 36.48053 31.02091 L 36.82515 30.95564 L 37.17269 30.90844 L 37.52223 30.87945 L 37.8728 30.86874 L 38.22346 30.87634 L 38.57324 30.90223 L 38.92119 30.94634 L 39.26637 31.00854 L 39.60783 31.08868 L 39.94464 31.18653 L 40.27589 31.30182 L 40.60066 31.43424 L 40.91809 31.58343 L 41.2273 31.74899 L 41.52744 31.93045 L 41.81771 32.12733 L 42.0973 32.3391 L 42.36546 32.56516 L 42.62146 32.80491 L 42.8646 33.0577 L 43.09422 33.32283 L 43.30968 33.59958 L 43.51041 33.8872 L 43.69585 34.1849 L 43.86551 34.49188 L 44.01891 34.80729 L 44.15564 35.13028 L 44.27534 35.45996 L 44.37766 35.79544 L 44.46233 36.1358 L 44.54246 36.45856 L 44.63902 36.7768 L 44.75175 37.08967 L 44.88035 37.39635 L 45.0245 37.69605 L 45.1838 37.98797 L 45.35785 38.27135 L 45.54618 38.54544 L 45.74831 38.80953 L 45.96369 39.06291 L 46.19177 39.30493 L 46.43195 39.53496 L 46.6836 39.75238 L 46.94605 39.95662 L 47.21861 40.14716 L 47.50058 40.32348 L 47.79121 40.48513 L 48.08973 40.63168 L 48.39538 40.76275 L 48.70733 40.878 L 49.02477 40.97711 L 49.34688 41.05984 L 49.6728 41.12596 L 100 50 L 49.6728 58.87404 L 49.34688 58.94016 L 49.02477 59.02289 L 48.70733 59.122 L 48.39538 59.23725 L 48.08973 59.36832 L 47.79121 59.51487 L 47.50058 59.67652 L 47.21861 59.85284 L 46.94605 60.04338 L 46.6836 60.24762 L 46.43195 60.46504 L 46.19177 60.69507 L 45.96369 60.93709 L 45.74831 61.19047 L 45.54618 61.45456 L 45.35785 61.72865 L 45.1838 62.01203 L 45.0245 62.30395 L 44.88035 62.60365 L 44.75175 62.91033 L 44.63902 63.2232 L 44.54246 63.54144 L 44.46233 63.8642 L 44.37766 64.20456 L 44.27534 64.54004 L 44.15564 64.86972 L 44.01891 65.19271 L 43.86551 65.50812 L 43.69585 65.8151 L 43.51041 66.1128 L 43.30968 66.40042 L 43.09422 66.67717 L 42.8646 66.9423 L 42.62146 67.19509 L 42.36546 67.43484 L 42.0973 67.6609 L 41.81771 67.87267 L 41.52744 68.06955 L 41.2273 68.25101 L 40.91809 68.41657 L 40.60066 68.56576 L 40.27589 68.69818 L 39.94464 68.81347 L 39.60783 68.91132 L 39.26637 68.99146 L 38.92119 69.05366 L 38.57324 69.09777 L 38.22346 69.12366 L 37.8728 69.13126 L 37.52223 69.12055 L 37.17269 69.09156 L 36.82515 69.04436 L 36.48053 68.97909 L 36.1398 68.89593 L 35.80387 68.7951 L 35.47366 68.67687 L 35.15007 68.54157 L 34.83398 68.38957 L 34.52625 68.22128 L 34.22773 68.03716 L 33.93922 67.83771 L 33.66152 67.62347 L 33.39537 67.39504 L 33.14151 67.15302 L 32.90063 66.89809 L 32.67337 66.63093 L 32.46037 66.35228 L 32.2622 66.06289 L 32.07941 65.76355 L 31.91249 65.45509 L 31.76189 65.13833 L 31.62803 64.81414 L 31.51127 64.48341 L 31.41192 64.14703 L 31.33027 63.80593 L 31.26653 63.46103 L 31.22088 63.11328 L 31.19344 62.76362 L 31.18429 62.413 L 31.31285 62.40963 L 31.44106 62.39954 L 31.56857 62.38276 L 31.69502 62.35932 L 31.82008 62.3293 L 31.94339 62.29277 L 32.06462 62.24984 L 32.18344 62.20062 L 32.29951 62.14526 L 32.41254 62.08389 L 32.52219 62.01669 L 32.62818 61.94385 L 32.73021 61.86556 L 32.82801 61.78204 L 32.92129 61.69351 L 33.00982 61.60022 L 33.09335 61.50243 L 33.17164 61.40039 L 33.24448 61.29441 L 33.31168 61.18475 L 33.37304 61.07173 L 33.42841 60.95565 L 33.47763 60.83683 L 33.52056 60.7156 L 33.55708 60.59229 L 33.58711 60.46724 L 33.61054 60.34078 L 33.62733 60.21327 L 33.63742 60.08506 L 33.64079 59.9565 L 33.63742 59.82794 L 33.62733 59.69973 L 33.61054 59.57222 L 33.58711 59.44577 L 33.55708 59.32071 L 33.52056 59.1974 L 33.47763 59.07617 L 33.42841 58.95735 L 33.37304 58.84127 L 33.31168 58.72825 L 33.24448 58.61859 L 33.17164 58.51261 L 33.09335 58.41057 L 33.00982 58.31278 L 32.92129 58.21949 L 32.82801 58.13096 L 32.73021 58.04744 L 32.62818 57.96915 L 32.52219 57.89631 L 32.41254 57.82911 L 32.29951 57.76774 L 32.18344 57.71238 L 32.06462 57.66316 L 31.94339 57.62023 L 31.82008 57.5837 L 31.69502 57.55368 L 31.56857 57.53024 L 31.44106 57.51346 L 31.31285 57.50337 L 31.18429 57.5 L 28.66441 57.5 L 28.22526 57.51148 L 27.78731 57.54589 L 27.35175 57.60314 L 26.91978 57.68308 L 26.49258 57.78547 L 26.07131 57.91005 L 25.65713 58.05647 L 25.25116 58.22433 L 24.85452 58.41318 L 24.46829 58.62249 L 24.09352 58.8517 L 23.73124 59.10018 L 23.38244 59.36725 L 23.04808 59.65218 L 22.72905 59.95419 L 22.42625 60.27246 L 22.14049 60.60612 L 21.87255 60.95426 L 21.62318 61.31592 L 21.39304 61.69011 L 21.18277 62.07583 L 20.99294 62.472 L 20.82407 62.87755 L 20.67662 63.29137 L 20.551 63.71232 L 20.44754 64.13927 L 20.36654 64.57104 L 20.30821 65.00646 L 20.27271 65.44432 L 20.26014 65.88344 L 20.27053 66.32262 L 20.30386 66.76066 L 20.36003 67.19636 L 20.43888 67.62853 L 20.54022 68.05598 L 20.66375 68.47756 L 20.80914 68.8921 L 20.97599 69.29849 L 21.16386 69.6956 L 21.37221 70.08235 L 21.60049 70.45768 L 21.84807 70.82057 L 22.5472 71.73939 L 23.29244 72.62123 L 24.08182 73.46378 L 24.91329 74.26483 L 25.78466 75.02228 L 26.69364 75.73414 L 27.63787 76.39856 L 28.61486 77.01379 L 29.62205 77.57821 L 30.65681 78.09036 L 31.71642 78.54888 L 32.79811 78.95257 L 33.89903 79.30039 L 35.01631 79.59141 L 36.14703 79.82487 L 37.2882 80.00017 L 38.43685 80.11684 L 39.58997 80.17457 L 40.74453 80.17322 L 41.89751 80.11279 L 43.04589 79.99344 L 44.18665 79.81548 L 45.31682 79.57937 L 46.43342 79.28574 L 47.53353 78.93535 L 48.61427 78.52913 L 49.6728 78.06813 L 91.38047 58.61953 L 50 100 L 47.3832 99.93148 L 44.77357 99.72609 L 42.17827 99.38442 L 39.60441 98.90738 L 37.05904 98.29629 L 34.54915 97.55283 L 32.0816 96.67902 L 29.66316 95.67727 L 27.30047 94.55033 L 25 93.30127 L 22.76804 91.93353 L 20.61073 90.45085 L 18.53398 88.8573 L 16.54347 87.15724 L 14.64466 85.35534 L 12.84276 83.45653 L 11.1427 81.46602 L 9.54915 79.38926 L 8.06647 77.23195 L 6.69873 75 L 5.44967 72.69952 L 4.32272 70.33683 L 3.32098 67.9184 L 2.44717 65.45085 L 1.70371 62.94095 L 1.09262 60.39558 L 0.61558 57.82172 L 0.2739 55.22642 L 0.06852 52.6168 L 0 50 L 0.06852 47.3832 L 0.2739 44.77358 L 0.61558 42.17828 L 1.09262 39.60442 L 1.70371 37.05905 L 2.44717 34.54915 L 3.32098 32.0816 L 4.32272 29.66317 L 5.44967 27.30048 L 6.69873 25 L 8.06647 22.76805 L 9.54915 20.61074 L 11.1427 18.53398 L 12.84276 16.54347 L 14.64466 14.64466 L 16.54347 12.84276 L 18.53398 11.1427 L 20.61073 9.54915 L 22.76804 8.06647 L 25 6.69873 L 27.30047 5.44967 L 29.66316 4.32273 L 32.0816 3.32098 L 34.54915 2.44717 L 37.05904 1.70371 L 39.60441 1.09262 L 42.17827 0.61558 L 44.77357 0.27391 L 47.3832 0.06852 Z" fill="#6b3f22" fill-rule="evenodd" stroke="none"/>
</svg>
